<svg version="1.1" xmlns="http://www.w3.org/2000/svg" xmlns:xlink="http://www.w3.org/1999/xlink" width="1020.2705078125" height="433"><defs/><g><g><path fill="#C0C0C0" stroke="none" paint-order="stroke fill markers" d=" M 448 141 L 503.482421875 141 Q 513.482421875 141 513.482421875 151 L 513.482421875 179 Q 513.482421875 189 503.482421875 189 L 448 189 Q 438 189 438 179 L 438 151 Q 438 141 448 141 Z" fill-opacity="0.2"/></g><g><path fill="#ffffff" stroke="none" paint-order="stroke fill markers" d=" M 441 134 L 496.482421875 134 Q 506.482421875 134 506.482421875 144 L 506.482421875 172 Q 506.482421875 182 496.482421875 182 L 441 182 Q 431 182 431 172 L 431 144 Q 431 134 441 134 Z"/></g><g><path fill="none" stroke="#000000" paint-order="fill stroke markers" d=" M 441 134 L 496.482421875 134 Q 506.482421875 134 506.482421875 144 L 506.482421875 172 Q 506.482421875 182 496.482421875 182 L 441 182 Q 431 182 431 172 L 431 144 Q 431 134 441 134 Z" stroke-miterlimit="10" stroke-dasharray=""/></g><g><g><path fill="none" stroke="none"/><text fill="#000000" stroke="none" font-family="Arial" font-size="13px" font-style="normal" font-weight="bold" text-decoration="undefined" x="566.2412109375" y="317.5" text-anchor="middle" dominant-baseline="central" transform="matrix(1 0 0 1 -97 -170)">APAGADO</text></g></g><g><path fill="#C0C0C0" stroke="none" paint-order="stroke fill markers" d=" M 176 133 L 216 133 Q 226 133 226 143 L 226 179 Q 226 189 216 189 L 176 189 Q 166 189 166 179 L 166 143 Q 166 133 176 133 Z" fill-opacity="0.2"/></g><g><path fill="#ffffff" stroke="none" paint-order="stroke fill markers" d=" M 169 126 L 209 126 Q 219 126 219 136 L 219 172 Q 219 182 209 182 L 169 182 Q 159 182 159 172 L 159 136 Q 159 126 169 126 Z"/></g><g><path fill="none" stroke="#000000" paint-order="fill stroke markers" d=" M 169 126 L 209 126 Q 219 126 219 136 L 219 172 Q 219 182 209 182 L 169 182 Q 159 182 159 172 L 159 136 Q 159 126 169 126 Z" stroke-miterlimit="10" stroke-dasharray=""/></g><g><g><path fill="none" stroke="none"/><text fill="#000000" stroke="none" font-family="Arial" font-size="13px" font-style="normal" font-weight="bold" text-decoration="undefined" x="286.5" y="309.5" text-anchor="middle" dominant-baseline="central" transform="matrix(1 0 0 1 -97 -170)">LTR</text></g></g><g><path fill="#C0C0C0" stroke="none" paint-order="stroke fill markers" d=" M 744 133 L 784 133 Q 794 133 794 143 L 794 179 Q 794 189 784 189 L 744 189 Q 734 189 734 179 L 734 143 Q 734 133 744 133 Z" fill-opacity="0.2"/></g><g><path fill="#ffffff" stroke="none" paint-order="stroke fill markers" d=" M 737 126 L 777 126 Q 787 126 787 136 L 787 172 Q 787 182 777 182 L 737 182 Q 727 182 727 172 L 727 136 Q 727 126 737 126 Z"/></g><g><path fill="none" stroke="#000000" paint-order="fill stroke markers" d=" M 737 126 L 777 126 Q 787 126 787 136 L 787 172 Q 787 182 777 182 L 737 182 Q 727 182 727 172 L 727 136 Q 727 126 737 126 Z" stroke-miterlimit="10" stroke-dasharray=""/></g><g><g><path fill="none" stroke="none"/><text fill="#000000" stroke="none" font-family="Arial" font-size="13px" font-style="normal" font-weight="bold" text-decoration="undefined" x="854.5" y="309.5" text-anchor="middle" dominant-baseline="central" transform="matrix(1 0 0 1 -97 -170)">RTL</text></g></g><g><path fill="#C0C0C0" stroke="none" paint-order="stroke fill markers" d=" M 456 349 L 496 349 Q 506 349 506 359 L 506 379 Q 506 389 496 389 L 456 389 Q 446 389 446 379 L 446 359 Q 446 349 456 349 Z" fill-opacity="0.2"/></g><g><path fill="#ffffff" stroke="none" paint-order="stroke fill markers" d=" M 449 342 L 489 342 Q 499 342 499 352 L 499 372 Q 499 382 489 382 L 449 382 Q 439 382 439 372 L 439 352 Q 439 342 449 342 Z"/></g><g><path fill="none" stroke="#000000" paint-order="fill stroke markers" d=" M 449 342 L 489 342 Q 499 342 499 352 L 499 372 Q 499 382 489 382 L 449 382 Q 439 382 439 372 L 439 352 Q 439 342 449 342 Z" stroke-miterlimit="10" stroke-dasharray=""/></g><g><g><path fill="none" stroke="none"/><text fill="#000000" stroke="none" font-family="Arial" font-size="13px" font-style="normal" font-weight="bold" text-decoration="undefined" x="566.5" y="525.5" text-anchor="middle" dominant-baseline="central" transform="matrix(1 0 0 1 -97 -170)">ERROR</text></g></g><g><path fill="none" stroke="#000000" paint-order="fill stroke markers" d=" M 431 174 L 219 174" stroke-miterlimit="10" stroke-dasharray=""/></g><g><path fill="none" stroke="#000000" paint-order="fill stroke markers" d=" M 229.16267485762415 169.790482243984 L 219 174 L 229.16267485762415 178.209517756016" stroke-miterlimit="10" stroke-dasharray=""/></g><g><rect fill="#ffffff" stroke="none" x="313" y="353" width="217.3310546875" height="13" transform="matrix(1 0 0 1 -97 -170)"/></g><g><g><path fill="none" stroke="none"/><text fill="#000000" stroke="none" font-family="Arial" font-size="13px" font-style="normal" font-weight="normal" text-decoration="undefined" x="421.66552734375" y="359.5" text-anchor="middle" dominant-baseline="central" transform="matrix(1 0 0 1 -97 -170)">comando == "ltr"</text></g></g><g><path fill="none" stroke="#000000" paint-order="fill stroke markers" d=" M 506 174 L 727 174" stroke-miterlimit="10" stroke-dasharray=""/></g><g><path fill="none" stroke="#000000" paint-order="fill stroke markers" d=" M 716.8373251423759 178.209517756016 L 727 174 L 716.8373251423758 169.790482243984" stroke-miterlimit="10" stroke-dasharray=""/></g><g><rect fill="#ffffff" stroke="none" x="609" y="351" width="215.896484375" height="13" transform="matrix(1 0 0 1 -97 -170)"/></g><g><g><path fill="none" stroke="none"/><text fill="#000000" stroke="none" font-family="Arial" font-size="13px" font-style="normal" font-weight="normal" text-decoration="undefined" x="716.9482421875" y="357.5" text-anchor="middle" dominant-baseline="central" transform="matrix(1 0 0 1 -97 -170)">comando == "rtl"</text></g></g><g><path fill="none" stroke="#000000" paint-order="fill stroke markers" d=" M 487 182 L 487 342" stroke-miterlimit="10" stroke-dasharray=""/></g><g><path fill="none" stroke="#000000" paint-order="fill stroke markers" d=" M 482.790482243984 331.83732514237585 L 487 342 L 491.209517756016 331.83732514237585" stroke-miterlimit="10" stroke-dasharray=""/></g><g><rect fill="#ffffff" stroke="none" x="591" y="432" width="111" height="13" transform="matrix(1 0 0 1 -97 -170)"/></g><g><g><path fill="none" stroke="none"/><text fill="#000000" stroke="none" font-family="Arial" font-size="13px" font-style="normal" font-weight="normal" text-decoration="undefined" x="646.5" y="438.5" text-anchor="middle" dominant-baseline="central" transform="matrix(1 0 0 1 -97 -170)">comando inválido</text></g></g><g><path fill="none" stroke="#000000" paint-order="fill stroke markers" d=" M 447 342 L 447 182" stroke-miterlimit="10" stroke-dasharray=""/></g><g><path fill="none" stroke="#000000" paint-order="fill stroke markers" d=" M 451.209517756016 192.16267485762415 L 447 182 L 442.790482243984 192.16267485762415" stroke-miterlimit="10" stroke-dasharray=""/></g><g><rect fill="#ffffff" stroke="none" x="340" y="432" width="198.7451171875" height="13" transform="matrix(1 0 0 1 -97 -170)"/></g><g><g><path fill="none" stroke="none"/><text fill="#000000" stroke="none" font-family="Arial" font-size="13px" font-style="normal" font-weight="normal" text-decoration="undefined" x="439.37255859375" y="438.5" text-anchor="middle" dominant-baseline="central" transform="matrix(1 0 0 1 -97 -170)">flasheos == 10 / apagarLeds()</text></g></g><g><path fill="none" stroke="#000000" paint-order="fill stroke markers" d=" M 191 182 L 191 358 L 439 358" stroke-miterlimit="10" stroke-dasharray=""/></g><g><path fill="none" stroke="#000000" paint-order="fill stroke markers" d=" M 428.8373251423759 362.209517756016 L 439 358 L 428.8373251423758 353.790482243984" stroke-miterlimit="10" stroke-dasharray=""/></g><g><rect fill="#ffffff" stroke="none" x="176" y="430" width="101.17529296875" height="13" transform="matrix(1 0 0 1 -97 -170)"/></g><g><g><path fill="none" stroke="none"/><text fill="#000000" stroke="none" font-family="Arial" font-size="13px" font-style="normal" font-weight="normal" text-decoration="undefined" x="226.587646484375" y="436.5" text-anchor="middle" dominant-baseline="central" transform="matrix(1 0 0 1 -97 -170)">comando inválido</text></g></g><g><path fill="none" stroke="#000000" paint-order="fill stroke markers" d=" M 219 142 L 431 142" stroke-miterlimit="10" stroke-dasharray=""/></g><g><path fill="none" stroke="#000000" paint-order="fill stroke markers" d=" M 420.8373251423759 146.209517756016 L 431 142 L 420.8373251423758 137.790482243984" stroke-miterlimit="10" stroke-dasharray=""/></g><g><rect fill="#ffffff" stroke="none" x="329" y="291" width="187.4970703125" height="13" transform="matrix(1 0 0 1 -97 -170)"/></g><g><g><path fill="none" stroke="none"/><text fill="#000000" stroke="none" font-family="Arial" font-size="13px" font-style="normal" font-weight="normal" text-decoration="undefined" x="422.74853515625" y="297.5" text-anchor="middle" dominant-baseline="central" transform="matrix(1 0 0 1 -97 -170)">comando == "off" / apagarLeds()</text></g></g><g><path fill="none" stroke="#000000" paint-order="fill stroke markers" d=" M 759 182 L 759 358 L 499 358" stroke-miterlimit="10" stroke-dasharray=""/></g><g><path fill="none" stroke="#000000" paint-order="fill stroke markers" d=" M 509.1626748576241 353.790482243984 L 499 358 L 509.1626748576241 362.209517756016" stroke-miterlimit="10" stroke-dasharray=""/></g><g><rect fill="#ffffff" stroke="none" x="864" y="432" width="104" height="13" transform="matrix(1 0 0 1 -97 -170)"/></g><g><g><path fill="none" stroke="none"/><text fill="#000000" stroke="none" font-family="Arial" font-size="13px" font-style="normal" font-weight="normal" text-decoration="undefined" x="916" y="438.5" text-anchor="middle" dominant-baseline="central" transform="matrix(1 0 0 1 -97 -170)">comando inválido</text></g></g><g><path fill="none" stroke="#000000" paint-order="fill stroke markers" d=" M 727 142 L 506 142" stroke-miterlimit="10" stroke-dasharray=""/></g><g><path fill="none" stroke="#000000" paint-order="fill stroke markers" d=" M 516.1626748576241 137.790482243984 L 506 142 L 516.1626748576241 146.209517756016" stroke-miterlimit="10" stroke-dasharray=""/></g><g><rect fill="#ffffff" stroke="none" x="623" y="295" width="179.9052734375" height="13" transform="matrix(1 0 0 1 -97 -170)"/></g><g><g><path fill="none" stroke="none"/><text fill="#000000" stroke="none" font-family="Arial" font-size="13px" font-style="normal" font-weight="normal" text-decoration="undefined" x="712.95263671875" y="301.5" text-anchor="middle" dominant-baseline="central" transform="matrix(1 0 0 1 -97 -170)">comando = "off" / apagarLeds()</text></g></g><g><path fill="none" stroke="#000000" paint-order="fill stroke markers" d=" M 189 126 L 189 106 L 119 106 L 119 158 L 159 158" stroke-miterlimit="10" stroke-dasharray=""/></g><g><path fill="none" stroke="#000000" paint-order="fill stroke markers" d=" M 148.83732514237585 162.209517756016 L 159 158 L 148.83732514237585 153.790482243984" stroke-miterlimit="10" stroke-dasharray=""/></g><g><rect fill="#ffffff" stroke="none" x="107" y="256" width="284.705078125" height="13" transform="matrix(1 0 0 1 -97 -170)"/></g><g><g><path fill="none" stroke="none"/><text fill="#000000" stroke="none" font-family="Arial" font-size="13px" font-style="normal" font-weight="normal" text-decoration="undefined" x="249.3525390625" y="262.5" text-anchor="middle" dominant-baseline="central" transform="matrix(1 0 0 1 -97 -170)">pausaLtrRtl.update() == true / izquierdaDerecha()</text></g></g><g><path fill="none" stroke="#000000" paint-order="fill stroke markers" d=" M 757 126 L 757 106 L 823 106 L 823 154 L 787 154" stroke-miterlimit="10" stroke-dasharray=""/></g><g><path fill="none" stroke="#000000" paint-order="fill stroke markers" d=" M 797.1626748576241 149.790482243984 L 787 154 L 797.1626748576241 158.209517756016" stroke-miterlimit="10" stroke-dasharray=""/></g><g><rect fill="#ffffff" stroke="none" x="824" y="256" width="283.2705078125" height="13" transform="matrix(1 0 0 1 -97 -170)"/></g><g><g><path fill="none" stroke="none"/><text fill="#000000" stroke="none" font-family="Arial" font-size="13px" font-style="normal" font-weight="normal" text-decoration="undefined" x="965.63525390625" y="262.5" text-anchor="middle" dominant-baseline="central" transform="matrix(1 0 0 1 -97 -170)">pausaLtrRtl.update() == true / derechaIzquierda()</text></g></g><g><path fill="none" stroke="#000000" paint-order="fill stroke markers" d=" M 469 382 L 469 422 L 543 422 L 543 374 L 499 374" stroke-miterlimit="10" stroke-dasharray=""/></g><g><path fill="none" stroke="#000000" paint-order="fill stroke markers" d=" M 509.1626748576241 369.790482243984 L 499 374 L 509.1626748576241 378.209517756016" stroke-miterlimit="10" stroke-dasharray=""/></g><g><rect fill="#ffffff" stroke="none" x="647" y="559" width="137.6552734375" height="13" transform="matrix(1 0 0 1 -97 -170)"/></g><g><g><path fill="none" stroke="none"/><text fill="#000000" stroke="none" font-family="Arial" font-size="13px" font-style="normal" font-weight="normal" text-decoration="undefined" x="715.82763671875" y="565.5" text-anchor="middle" dominant-baseline="central" transform="matrix(1 0 0 1 -97 -170)">flasheos &lt; 10 / error()</text></g></g><g><path fill="#C0C0C0" stroke="none" paint-order="stroke fill markers" d=" M 464 27 C 464 21.47715199999999 468.47715200000005 17 474 17 C 479.52284799999995 17 484 21.47715199999999 484 27 C 484 32.52284800000001 479.52284799999995 37 474 37 C 468.47715200000005 37 464 32.52284800000001 464 27 Z" fill-opacity="0.2"/></g><g><path fill="#000000" stroke="none" paint-order="stroke fill markers" d=" M 457 20 C 457 14.47715199999999 461.47715200000005 10 467 10 C 472.52284799999995 10 477 14.47715199999999 477 20 C 477 25.52284800000001 472.52284799999995 30 467 30 C 461.47715200000005 30 457 25.52284800000001 457 20 Z"/></g><g><path fill="none" stroke="#000000" paint-order="fill stroke markers" d=" M 467 30 L 467 134" stroke-miterlimit="10" stroke-dasharray=""/></g><g><path fill="none" stroke="#000000" paint-order="fill stroke markers" d=" M 462.790482243984 123.83732514237585 L 467 134 L 471.209517756016 123.83732514237585" stroke-miterlimit="10" stroke-dasharray=""/></g><g><rect fill="#ffffff" stroke="none" x="568" y="240" width="77.3271484375" height="13" transform="matrix(1 0 0 1 -97 -170)"/></g><g><g><path fill="none" stroke="none"/><text fill="#000000" stroke="none" font-family="Arial" font-size="13px" font-style="normal" font-weight="normal" text-decoration="undefined" x="606.66357421875" y="246.5" text-anchor="middle" dominant-baseline="central" transform="matrix(1 0 0 1 -97 -170)">apagarLeds()</text></g></g></g></svg>